<svg xmlns="http://www.w3.org/2000/svg" xmlns:xlink="http://www.w3.org/1999/xlink" contentStyleType="text/css" height="141px" preserveAspectRatio="none" style="width:206px;height:141px;background:#FFFFFF;" version="1.1" viewBox="0 0 206 141" width="206px" zoomAndPan="magnify"><defs/><g><!--class Singleton--><g id="elem_Singleton"><rect codeLine="1" fill="#F1F1F1" height="80.5938" id="Singleton" rx="2.5" ry="2.5" style="stroke:#181818;stroke-width:0.5;" width="192" x="7" y="54"/><ellipse cx="66.25" cy="70" fill="#ADD1B2" rx="11" ry="11" style="stroke:#181818;stroke-width:1.0;"/><path d="M69.2188,75.6406 Q68.6406,75.9375 68,76.0781 Q67.3594,76.2344 66.6563,76.2344 Q64.1563,76.2344 62.8281,74.5938 Q61.5156,72.9375 61.5156,69.8125 Q61.5156,66.6875 62.8281,65.0313 Q64.1563,63.375 66.6563,63.375 Q67.3594,63.375 68,63.5313 Q68.6563,63.6875 69.2188,63.9844 L69.2188,66.7031 Q68.5938,66.125 68,65.8594 Q67.4063,65.5781 66.7813,65.5781 Q65.4375,65.5781 64.75,66.6563 Q64.0625,67.7188 64.0625,69.8125 Q64.0625,71.9063 64.75,72.9844 Q65.4375,74.0469 66.7813,74.0469 Q67.4063,74.0469 68,73.7813 Q68.5938,73.5 69.2188,72.9219 L69.2188,75.6406 Z " fill="#000000"/><text fill="#000000" font-family="sans-serif" font-size="14" lengthAdjust="spacing" textLength="65" x="86.75" y="74.8467">Singleton</text><line style="stroke:#181818;stroke-width:0.5;" x1="8" x2="198" y1="86" y2="86"/><rect fill="none" height="6" style="stroke:#C82930;stroke-width:1.0;" width="6" x="15" y="96.6484"/><text fill="#000000" font-family="sans-serif" font-size="14" lengthAdjust="spacing" text-decoration="underline" textLength="133" x="27" y="102.9951">instance: Singleton</text><line style="stroke:#181818;stroke-width:0.5;" x1="8" x2="198" y1="110.2969" y2="110.2969"/><ellipse cx="18" cy="123.9453" fill="#84BE84" rx="3" ry="3" style="stroke:#038048;stroke-width:1.0;"/><text fill="#000000" font-family="sans-serif" font-size="14" lengthAdjust="spacing" textLength="166" x="27" y="127.292">getInstance(): Singleton</text></g><!--link Singleton to Singleton--><g id="link_Singleton_Singleton"><path codeLine="6" d="M111.1847,102.9776 C124.7947,68.4876 119.13,6 103,6 C92.54,6 87.8001,20.9834 89.8501,44.1034 " fill="none" id="Singleton-Singleton" style="stroke:#181818;stroke-width:1.0;"/><polygon fill="#181818" points="106.78,114.14,112.7032,110.0271,111.1847,102.9776,105.2616,107.0906,106.78,114.14" style="stroke:#181818;stroke-width:1.0;"/><polygon fill="#181818" points="90.38,50.08,93.5695,40.7619,89.9384,45.0995,85.6007,41.4685,90.38,50.08" style="stroke:#181818;stroke-width:1.0;"/></g><!--SRC=[Iyv9B2vM2CxCIyz9BSdFKwZcKW02NONgufB4aipaMeNCF20hBpdL2g48h4HR8Jsrn1CggQ69B5tBnGNdM5aXALFGqjMrGoW40000]--></g></svg>